<svg width="154" height="141" viewBox="0 0 154 141" fill="none" xmlns="http://www.w3.org/2000/svg">
<ellipse cx="77.7002" cy="137.536" rx="76.3007" ry="3.4639" fill="#C4C4C4"/>
<path d="M128.976 53.1553H7.50269V137.536H128.976V53.1553Z" fill="#FDB827"/>
<path d="M80.8586 53.1553H55.6062V137.536H80.8586V53.1553Z" fill="#AD1717"/>
<path d="M69.1594 20.8595C69.1594 20.8595 58.198 -6.38557 40.76 1.39874C23.322 9.18306 24.0366 34.5639 47.4646 32.9139C70.8926 31.2638 69.1594 20.8595 69.1594 20.8595Z" fill="#D32F2F"/>
<path d="M71.1662 20.8595C71.1662 20.8595 82.1429 -6.38557 99.5809 1.39874C117.019 9.18306 116.304 34.5765 92.8763 32.8887C69.4483 31.2008 71.1662 20.8595 71.1662 20.8595Z" fill="#D32F2F"/>
<path d="M70.1627 30.5969C75.8471 30.5969 80.4553 26.7791 80.4553 22.0695C80.4553 17.3599 75.8471 13.542 70.1627 13.542C64.4784 13.542 59.8702 17.3599 59.8702 22.0695C59.8702 26.7791 64.4784 30.5969 70.1627 30.5969Z" fill="#AD1717"/>
<path d="M128.77 28.5557H7.70798C3.45098 28.5557 0 31.4148 0 34.9418V46.7694C0 50.2964 3.45098 53.1556 7.70798 53.1556H128.77C133.027 53.1556 136.478 50.2964 136.478 46.7694V34.9418C136.478 31.4148 133.027 28.5557 128.77 28.5557Z" fill="#F3703A"/>
<path d="M80.8663 28.5557H55.614V53.1556H80.8663V28.5557Z" fill="#D32F2F"/>
</svg>
